<svg width="30" height="30" viewBox="0 0 30 30" fill="none" xmlns="http://www.w3.org/2000/svg">
<path d="M8.75 17.9167C8.75 16.359 8.75 15.5801 9.08494 15C9.30436 14.62 9.61995 14.3044 10 14.0849C10.5801 13.75 11.359 13.75 12.9167 13.75H17.0833C18.641 13.75 19.4199 13.75 20 14.0849C20.38 14.3044 20.6956 14.62 20.9151 15C21.25 15.5801 21.25 16.359 21.25 17.9167V20C21.25 21.1616 21.25 21.7425 21.1539 22.2255C20.7594 24.2089 19.2089 25.7594 17.2255 26.1539C16.7425 26.25 16.1616 26.25 15 26.25C13.8384 26.25 13.2575 26.25 12.7745 26.1539C10.7911 25.7594 9.24061 24.2089 8.84607 22.2255C8.75 21.7425 8.75 21.1616 8.75 20V17.9167Z" fill="#2A4157" fill-opacity="0.24" stroke="#222222" stroke-width="1.5"/>
<path d="M11.25 11.25C11.25 10.0851 11.25 9.50272 11.4403 9.04329C11.694 8.43072 12.1807 7.94404 12.7933 7.6903C13.2527 7.5 13.8351 7.5 15 7.5C16.1649 7.5 16.7473 7.5 17.2067 7.6903C17.8193 7.94404 18.306 8.43072 18.5597 9.04329C18.75 9.50272 18.75 10.0851 18.75 11.25V13.75H11.25V11.25Z" fill="#2A4157" fill-opacity="0.24" stroke="#222222" stroke-width="1.5"/>
<path d="M15 13.75V18.75" stroke="#222222" stroke-width="1.5"/>
<path d="M18.75 3.75L16.25 7.5" stroke="#222222" stroke-width="1.5"/>
<path d="M11.25 3.75L13.75 7.5" stroke="#222222" stroke-width="1.5"/>
<path d="M8.75 20H2.5" stroke="#222222" stroke-width="1.5"/>
<path d="M27.5 20H21.25" stroke="#222222" stroke-width="1.5"/>
<path d="M25 11.25V12.5C25 14.5711 23.3211 16.25 21.25 16.25V16.25" stroke="#222222" stroke-width="1.5"/>
<path d="M25 27.5V27.5C25 25.4289 23.3211 23.75 21.25 23.75V23.75" stroke="#222222" stroke-width="1.5"/>
<path d="M5 11.25V12.5C5 14.5711 6.67893 16.25 8.75 16.25V16.25" stroke="#222222" stroke-width="1.5"/>
<path d="M5 27.5V27.5C5 25.4289 6.67893 23.75 8.75 23.75V23.75" stroke="#222222" stroke-width="1.5"/>
</svg>
