<svg width="15" height="16" viewBox="0 0 15 16" fill="none" xmlns="http://www.w3.org/2000/svg">
<path d="M13.7695 4.42578L13.8047 4.40234C13.7344 4.27344 13.6289 4.15625 13.5234 4.09766L7.86328 0.839844C7.76953 0.78125 7.64063 0.757812 7.5 0.757812C7.35937 0.757812 7.23047 0.792969 7.13672 0.839844L1.51172 4.10937C1.3125 4.22656 1.17188 4.51953 1.17188 4.74219V11.2695C1.17188 11.3984 1.19531 11.5391 1.27734 11.668L1.25391 11.6797C1.3125 11.7734 1.39453 11.8555 1.47656 11.9023L7.125 15.1719C7.21875 15.2305 7.34766 15.2539 7.48828 15.2539C7.62891 15.2539 7.75781 15.2188 7.85156 15.1719L13.4766 11.9023C13.6758 11.7852 13.8164 11.4922 13.8164 11.2695V4.73047C13.8281 4.63672 13.8164 4.53125 13.7695 4.42578ZM7.5 10.8711C8.56641 10.8711 9.50391 10.2852 9.99609 9.41797L11.5078 10.3086C10.7109 11.6914 9.21094 12.6289 7.5 12.6289C4.94531 12.6289 2.87109 10.5547 2.87109 8C2.87109 5.44531 4.94531 3.37109 7.5 3.37109C9.22266 3.37109 10.7227 4.32031 11.5195 5.71484L9.99609 6.59375C9.50391 5.71484 8.56641 5.12891 7.5 5.12891C5.91797 5.12891 4.62891 6.41797 4.62891 8C4.62891 9.58203 5.91797 10.8711 7.5 10.8711Z" fill="#2B94E6"/>
</svg>
