<svg width="30" height="30" viewBox="0 0 30 30" fill="none" xmlns="http://www.w3.org/2000/svg">
<circle cx="15" cy="10" r="3.125" stroke="#222222" stroke-width="1.25" stroke-linecap="round"/>
<path d="M17.2099 8.125C17.4572 7.69679 17.8258 7.35151 18.2693 7.13282C18.7127 6.91413 19.2111 6.83185 19.7013 6.89639C20.1915 6.96093 20.6516 7.16938 21.0234 7.4954C21.3951 7.82142 21.6618 8.25035 21.7898 8.72795C21.9178 9.20556 21.9013 9.71039 21.7423 10.1786C21.5834 10.6468 21.2892 11.0574 20.8969 11.3584C20.5046 11.6594 20.0319 11.8373 19.5385 11.8696C19.0451 11.902 18.5532 11.7873 18.125 11.5401" stroke="#222222" stroke-width="1.25"/>
<path d="M12.7901 8.125C12.5428 7.69679 12.1742 7.35151 11.7307 7.13282C11.2873 6.91413 10.7889 6.83185 10.2987 6.89639C9.80846 6.96093 9.34838 7.16938 8.97664 7.4954C8.60489 7.82142 8.33816 8.25035 8.21019 8.72795C8.08221 9.20556 8.09874 9.71039 8.25767 10.1786C8.41661 10.6468 8.71082 11.0574 9.1031 11.3584C9.49537 11.6594 9.9681 11.8373 10.4615 11.8696C10.9549 11.902 11.4468 11.7873 11.875 11.5401" stroke="#222222" stroke-width="1.25"/>
<path d="M15 15.625C20.1003 15.625 21.4169 19.7527 21.7567 21.8837C21.8655 22.5655 21.3154 23.125 20.625 23.125H9.375C8.68464 23.125 8.13453 22.5655 8.24326 21.8837C8.58312 19.7527 9.8997 15.625 15 15.625Z" stroke="#222222" stroke-width="1.25" stroke-linecap="round"/>
<path d="M19.3755 14.375L19.3756 13.75H19.3755V14.375ZM24.1206 19.2705L24.7269 19.1188L24.7269 19.1187L24.1206 19.2705ZM21.4741 20.625L20.8738 20.7987L21.0043 21.25H21.4741V20.625ZM16.3589 15.7324L15.8973 15.311L15.1218 16.1604L16.2564 16.349L16.3589 15.7324ZM19.3755 14.375L19.3754 15C20.6599 15.0001 21.562 15.6285 22.223 16.5089C22.8971 17.4069 23.293 18.5385 23.5143 19.4223L24.1206 19.2705L24.7269 19.1187C24.488 18.1646 24.0411 16.8486 23.2226 15.7584C22.3909 14.6506 21.1506 13.7502 19.3756 13.75L19.3755 14.375ZM24.1206 19.2705L23.5143 19.4222C23.5815 19.6908 23.3842 20 22.9937 20V20.625V21.25C24.082 21.25 25.0187 20.2848 24.7269 19.1188L24.1206 19.2705ZM22.9937 20.625V20H21.4741V20.625V21.25H22.9937V20.625ZM21.4741 20.625L22.0745 20.4513C21.4856 18.4163 20.0236 15.7079 16.4613 15.1159L16.3589 15.7324L16.2564 16.349C19.1314 16.8267 20.3459 18.9748 20.8738 20.7987L21.4741 20.625ZM16.3589 15.7324L16.8204 16.1538C17.4459 15.4689 18.2638 15 19.3755 15V14.375V13.75C17.854 13.75 16.717 14.4132 15.8973 15.311L16.3589 15.7324Z" fill="#222222"/>
<path d="M10.6252 14.375L10.6253 13.75H10.6252V14.375ZM13.6399 15.7324L13.7425 16.3489L14.877 16.1602L14.1014 15.3109L13.6399 15.7324ZM8.52563 20.625V21.25H8.99542L9.126 20.7987L8.52563 20.625ZM7.0061 20.625L7.00604 21.25H7.0061V20.625ZM5.87915 19.2705L5.27287 19.1187L5.27284 19.1188L5.87915 19.2705ZM10.6252 14.375L10.6252 15C11.7362 15.0001 12.5528 15.4689 13.1784 16.1539L13.6399 15.7324L14.1014 15.3109C13.2821 14.4139 12.1466 13.7501 10.6253 13.75L10.6252 14.375ZM13.6399 15.7324L13.5373 15.1159C9.97592 15.7083 8.51407 18.4165 7.92527 20.4513L8.52563 20.625L9.126 20.7987C9.65374 18.975 10.8683 16.8271 13.7425 16.3489L13.6399 15.7324ZM8.52563 20.625V20H7.0061V20.625V21.25H8.52563V20.625ZM7.0061 20.625L7.00617 20C6.61556 20 6.41829 19.6907 6.48546 19.4222L5.87915 19.2705L5.27284 19.1188C4.98109 20.2848 5.91788 21.2499 7.00604 21.25L7.0061 20.625ZM5.87915 19.2705L6.48543 19.4223C6.70678 18.5385 7.1028 17.4068 7.77713 16.5088C8.43825 15.6284 9.34059 15 10.6252 15V14.375V13.75C8.85001 13.75 7.60944 14.6504 6.77757 15.7582C5.95889 16.8484 5.51181 18.1645 5.27287 19.1187L5.87915 19.2705Z" fill="#222222"/>
</svg>
