<svg width="15" height="15" viewBox="0 0 15 15" fill="none" xmlns="http://www.w3.org/2000/svg">
<path fill-rule="evenodd" clip-rule="evenodd" d="M1.98445 0.201416C1.85238 0.211729 1.72266 0.210088 1.5948 0.245127C1.31508 0.321885 1.06652 0.44458 0.847266 0.633721C0.718359 0.744814 0.605859 0.86458 0.510352 1.00567C0.36293 1.22353 0.2625 1.45767 0.212109 1.72122C0.232266 1.75649 0.253477 1.79353 0.275977 1.83114C0.418828 2.06997 0.561797 2.30716 0.705 2.54575L1.08141 3.17165C1.19719 3.36454 1.31273 3.55755 1.42828 3.75044L1.96828 4.65138L2.3366 5.26591C2.51555 5.56415 2.69496 5.86216 2.87367 6.16052L3.53098 7.25868C3.72047 7.57497 3.91031 7.89102 4.10016 8.20708L4.12547 8.24388C4.15301 8.25267 4.17492 8.24517 4.19766 8.23978C4.44773 8.17978 4.69781 8.12013 4.94789 8.06036C5.35348 7.96345 5.75906 7.86688 6.16465 7.76985L6.79992 7.61786C7.20996 7.51989 7.62012 7.42216 8.03016 7.32396C8.44465 7.22481 8.85902 7.12521 9.27363 7.02595C9.48316 6.97567 9.6927 6.92563 9.90234 6.8756C10.3079 6.7788 10.7135 6.68224 11.1191 6.58567L12.4443 6.27009L12.5159 6.25075L12.4963 6.21196L12.1346 5.70079L11.7775 5.19513L11.3954 4.6556L11.0303 4.13845L10.6684 3.62739L10.2948 3.09923C10.1728 2.92696 10.0506 2.75493 9.92848 2.58278L9.73547 2.31021C9.70575 2.2687 9.68256 2.2229 9.66668 2.17438C9.62848 2.05591 9.67207 1.97704 9.74121 1.9188C9.78598 1.88095 9.83754 1.85317 9.89332 1.83677C9.9708 1.81296 10.0494 1.79301 10.1289 1.777C10.2881 1.74688 10.4484 1.72134 10.6083 1.69474L11.1502 1.60638C11.2644 1.58751 11.3786 1.56771 11.4928 1.54837C11.6481 1.52212 11.8034 1.49575 11.9587 1.46985C12.1096 1.44454 12.2604 1.41946 12.4112 1.39462L12.9049 1.31388L13.2476 1.25634C13.3779 1.23454 13.5081 1.21286 13.6383 1.19153C13.8007 1.16505 13.963 1.13833 14.1254 1.1129C14.2222 1.09778 14.319 1.09251 14.4151 1.12017C14.4864 1.14128 14.5536 1.17428 14.6139 1.21778L14.6984 1.27673C14.7068 1.25728 14.6946 1.24673 14.689 1.2356C14.5691 0.991085 14.399 0.774586 14.1898 0.600205C13.9957 0.437117 13.7712 0.31405 13.5293 0.238096C13.3853 0.19251 13.2373 0.213721 13.0866 0.202354M6.52605 14.8828C6.51879 14.8828 6.51234 14.83 6.50414 14.8161C6.32836 14.5161 6.1507 14.1941 5.97703 13.893C5.75837 13.5135 5.54129 13.133 5.32582 12.7516C5.09555 12.344 4.86727 11.9353 4.63875 11.5268C4.4216 11.1384 4.20485 10.7498 3.98848 10.361C3.85781 10.126 3.72797 9.8906 3.59742 9.65552L3.56273 9.60173L3.49922 9.61427C3.37359 9.64673 3.2482 9.67942 3.12281 9.71247C2.9482 9.75841 2.77371 9.80517 2.59898 9.85075C2.20676 9.95282 1.81453 10.0543 1.4223 10.156C1.0234 10.2596 0.607734 10.3634 0.208711 10.4666C0.184453 10.4728 0.234375 10.4749 0.117188 10.479V12.9569C0.165469 13.0338 0.160898 12.9976 0.163945 13.0229C0.173203 13.0963 0.188203 13.1702 0.201094 13.2429C0.249375 13.5136 0.358008 13.7614 0.515039 13.9871C0.745313 14.3183 1.05199 14.555 1.4277 14.6999C1.56187 14.7514 1.70191 14.7877 1.84512 14.8053L1.99055 14.8438" fill="#FD4F31"/>
<path fill-rule="evenodd" clip-rule="evenodd" d="M0.583125 9.11041C1.04473 9.0006 1.50645 8.89091 1.96805 8.78134C2.17078 8.7333 2.37363 8.68584 2.57637 8.63756C2.67773 8.61341 2.77934 8.59045 2.87988 8.56326C2.96941 8.53912 2.98043 8.50947 2.93438 8.42873C2.86781 8.31201 2.80008 8.19599 2.7327 8.07963L2.13926 7.05775L1.54605 6.03576C1.34484 5.68912 1.1434 5.34248 0.94207 4.99595L0.425039 4.1065C0.350508 3.9783 0.260039 3.84974 0.185156 3.72166C0.171211 3.69834 0.234375 3.67045 0.117188 3.65802V9.21224C0.117188 9.20849 0.170273 9.20533 0.188203 9.20099L0.583125 9.11041ZM14.7919 13.0805C14.6109 13.1448 14.4299 13.2096 14.2491 13.2744L13.0133 13.7175C12.7845 13.7997 12.5561 13.8828 12.3271 13.9645C11.8604 14.1311 11.3936 14.297 10.9268 14.4632C10.6563 14.5595 10.3857 14.6786 10.1154 14.7754C10.0413 14.802 9.96832 14.8828 9.89496 14.8828H12.9993L13.0661 14.8445C13.145 14.8411 13.2227 14.8177 13.3003 14.8035C13.6189 14.7453 13.9043 14.6074 14.1571 14.406C14.3512 14.2512 14.5092 14.0619 14.633 13.8461C14.7602 13.6239 14.8358 13.3835 14.8721 13.1311C14.8753 13.1093 14.8821 13.0846 14.8638 13.0621C14.838 13.0601 14.8153 13.0722 14.7919 13.0805ZM14.5253 8.91201C14.3884 8.72474 14.2512 8.53783 14.1145 8.35045C13.926 8.09181 13.7378 7.83295 13.5495 7.5742C13.4729 7.4692 13.3954 7.36502 13.3207 7.25884C13.2982 7.22685 13.2725 7.2183 13.2375 7.22779L13.2175 7.23353C12.8708 7.31779 12.5241 7.40181 12.1773 7.48584L11.556 7.63666L10.3405 7.93185C9.93984 8.02923 9.53918 8.12674 9.1384 8.22388L7.88895 8.52646C7.47914 8.62595 7.06957 8.7258 6.65988 8.82541L5.47137 9.11392C5.26195 9.16478 5.05254 9.21541 4.84336 9.2665C4.81254 9.274 4.77938 9.27588 4.74656 9.30072L4.77457 9.35404C5.14846 10.0003 5.52339 10.646 5.89934 11.291C6.11895 11.6676 6.33914 12.0438 6.5591 12.4203C6.68555 12.6365 6.81117 12.8529 6.93867 13.0685C7.08008 13.3082 7.22278 13.547 7.36676 13.7851C7.41 13.8563 7.4591 13.9242 7.50855 13.9913C7.54167 14.0363 7.58332 14.0744 7.63113 14.1034C7.68106 14.1335 7.73484 14.143 7.79156 14.1303C7.82086 14.1236 7.84957 14.114 7.87793 14.1041L7.98223 14.0654C8.36156 13.9357 8.74078 13.806 9.12023 13.6767C9.41625 13.576 9.71262 13.4756 10.0089 13.3754C10.3029 13.2757 10.5971 13.1765 10.8913 13.0772L11.7671 12.7814C12.0657 12.6805 12.3642 12.5796 12.6627 12.4785C13.029 12.3542 13.3952 12.2294 13.7618 12.1053C14.1151 11.9857 14.4688 11.8669 14.8222 11.7476C14.8439 11.7403 14.8678 11.7373 14.8857 11.7135L14.888 11.662C14.8881 10.929 14.8879 10.1959 14.8887 9.46291C14.8894 9.42594 14.8775 9.38983 14.8548 9.3606C14.7437 9.21189 14.6348 9.06166 14.5253 8.91201ZM14.4645 2.00521C14.3822 1.90103 14.2774 1.86799 14.149 1.9015C14.0931 1.91615 14.0357 1.92541 13.9787 1.93584C13.7919 1.97006 13.6049 2.00369 13.4181 2.03756C13.1446 2.08724 12.8712 2.1374 12.5977 2.18662C12.3811 2.22552 12.1644 2.26384 11.9477 2.30181L11.0784 2.45392C11.042 2.46025 11.0052 2.46658 10.97 2.47783C10.9188 2.49424 10.9041 2.52634 10.9275 2.57451C10.9466 2.61388 10.9704 2.6515 10.9962 2.68689C11.1759 2.93463 11.3565 3.18177 11.5371 3.42904C11.786 3.76994 12.035 4.11072 12.2841 4.45138C12.4948 4.73967 12.7057 5.02795 12.9165 5.31611C13.0822 5.54252 13.2479 5.76892 13.4139 5.99521L13.4466 6.03482L14.8846 5.67939L14.888 5.60486C14.8881 4.60748 14.8879 3.61009 14.8887 2.61259C14.8887 2.56853 14.878 2.53314 14.8502 2.49822C14.7293 2.34552 14.6106 2.19107 14.4909 2.03732L14.4645 2.00521ZM14.8513 6.83814C14.6338 6.89041 14.4155 6.94009 14.1927 6.99904C14.2163 7.04088 14.8273 7.86564 14.8628 7.90478L14.885 7.91709L14.8875 7.86681L14.8876 7.51959C14.8877 7.31814 14.8882 7.1167 14.8877 6.91525C14.8877 6.89076 14.8946 6.86439 14.8778 6.83955L14.8513 6.83814Z" fill="#FD4F31"/>
</svg>
