<svg width="15" height="15" viewBox="0 0 15 15" fill="none" xmlns="http://www.w3.org/2000/svg">
<path d="M13.7048 11.4618C12.9005 11.4399 12.2863 11.5148 11.7612 11.7362C11.612 11.7991 11.3739 11.8008 11.3495 11.9878C11.4316 12.0737 11.4443 12.2021 11.5095 12.3078C11.6349 12.5105 11.8465 12.7826 12.0354 12.9251C12.2419 13.081 12.4546 13.2475 12.6759 13.3824C13.0694 13.6223 13.5087 13.7594 13.8876 13.9998C14.1109 14.1415 14.3328 14.32 14.5506 14.4799C14.6584 14.559 14.7307 14.6819 14.8708 14.7315V14.7087C14.7972 14.615 14.7782 14.4863 14.7107 14.3885L14.4134 14.0912C14.1228 13.7054 13.7537 13.3665 13.3615 13.0851C13.0487 12.8606 12.3488 12.5573 12.2184 12.1934L12.1955 12.1706C12.4172 12.1455 12.6768 12.0653 12.8815 12.0104C13.2253 11.9183 13.5326 11.9421 13.8876 11.8504L14.3677 11.7132V11.6218C14.1883 11.4377 14.0603 11.1939 13.8647 11.0273C13.3526 10.5914 12.7939 10.1558 12.2185 9.79249C11.8993 9.59116 11.5049 9.46026 11.1666 9.28952C11.0528 9.23198 10.8529 9.2021 10.7778 9.10647C10.6 8.88006 10.5033 8.59295 10.3663 8.32917C10.0793 7.77639 9.79749 7.17276 9.5432 6.59116C9.36976 6.1946 9.25644 5.80366 9.04011 5.44788C8.00183 3.74081 6.88433 2.71061 5.15312 1.69788C4.78468 1.48249 4.34113 1.39752 3.87238 1.2862C3.62101 1.27108 3.36941 1.25573 3.11792 1.24038C2.96429 1.17639 2.80468 0.98854 2.66066 0.897369C2.08714 0.535025 0.615971 -0.253061 0.191283 0.783111C-0.0769588 1.43713 0.592182 2.0751 0.831362 2.40663C0.999408 2.63889 1.21445 2.89963 1.33445 3.16108C1.41343 3.33299 1.42703 3.50538 1.49464 3.68713C1.6607 4.13502 1.80542 4.62229 2.02046 5.03608C2.1291 5.24561 2.24886 5.46616 2.38632 5.65342C2.47046 5.76838 2.61496 5.81901 2.63769 5.99643C2.4966 6.19401 2.48851 6.50081 2.40917 6.75112C2.05175 7.87788 2.18664 9.2785 2.70648 10.1124C2.86585 10.3686 3.24167 10.9176 3.75824 10.7069C4.21011 10.5229 4.10921 9.95245 4.23847 9.44924C4.26765 9.33522 4.24972 9.25131 4.30703 9.17491V9.19776L4.71871 10.0209C5.02339 10.5115 5.56386 11.0242 6.02206 11.3702C6.2596 11.5496 6.44663 11.8597 6.75378 11.9647V11.9417H6.73093C6.6714 11.849 6.57824 11.8106 6.5023 11.736C6.32335 11.5606 6.12437 11.3425 5.97648 11.1415C5.55976 10.5759 5.19156 9.95678 4.85605 9.31237C4.69574 9.00452 4.5564 8.66514 4.4214 8.3519C4.36937 8.2312 4.37007 8.0485 4.26156 7.98604C4.11355 8.21549 3.8957 8.40112 3.78132 8.67206C3.59839 9.10518 3.57484 9.63346 3.50699 10.1812C3.46691 10.1955 3.48472 10.1856 3.46117 10.2039C3.14265 10.1272 3.03085 9.7994 2.91238 9.51803C2.61308 8.8067 2.55742 7.66155 2.82085 6.84276C2.88906 6.63077 3.19703 5.96374 3.07234 5.76792C3.01281 5.57268 2.8164 5.45971 2.7066 5.31053C2.57054 5.12608 2.43484 4.88327 2.3405 4.67022C2.09558 4.11581 1.98121 3.49319 1.72328 2.93256C1.59988 2.66456 1.3914 2.39327 1.22019 2.15514C1.0307 1.89112 0.818354 1.6967 0.671401 1.3776C0.619135 1.26417 0.548237 1.08252 0.62558 0.965923C0.65019 0.88729 0.685112 0.854478 0.762807 0.828814C0.895463 0.726509 1.26484 0.862798 1.40288 0.920103C1.76956 1.07245 2.07566 1.21752 2.38632 1.42331C2.53527 1.52221 2.68621 1.71335 2.86644 1.76631H3.07222C3.39413 1.84026 3.75472 1.78917 4.05554 1.88057C4.5871 2.04206 5.06347 2.29342 5.49601 2.56659C6.8139 3.39885 7.89156 4.58338 8.62867 5.99655C8.74726 6.22413 8.79859 6.44116 8.903 6.68256C9.1137 7.16924 9.37913 7.66999 9.58878 8.146C9.79808 8.62085 10.002 9.10003 10.2978 9.49518C10.4533 9.70284 11.0537 9.81428 11.3268 9.92971C11.518 10.0105 11.8315 10.0948 12.0128 10.2039C12.3589 10.4128 12.6943 10.6613 13.019 10.8901C13.181 11.0043 13.6799 11.2552 13.7048 11.4618ZM3.48378 2.74999C3.31609 2.74682 3.19749 2.76827 3.0721 2.79557V2.81842H3.09496C3.17499 2.98272 3.31621 3.08866 3.41499 3.2301C3.49117 3.3903 3.56746 3.55026 3.64374 3.71022L3.66648 3.6876C3.80816 3.58764 3.87296 3.42815 3.87214 3.1844C3.81542 3.12475 3.8071 3.04999 3.75788 2.97874C3.69273 2.8837 3.56628 2.82967 3.48378 2.74999Z" fill="#00618A"/>
</svg>
