<svg width="15" height="15" viewBox="0 0 15 15" fill="none" xmlns="http://www.w3.org/2000/svg">
<path d="M7.5 0C3.36328 0 0 3.36328 0 7.5C0 11.6367 3.36328 15 7.5 15C11.6367 15 15 11.6367 15 7.5C15 3.36328 11.6367 0 7.5 0ZM11.332 13.4062L5.67188 4.89844H4.875V10.7695H5.67188V6.48047L10.8516 13.6875C9.85547 14.2266 8.71875 14.5312 7.5 14.5312C3.60938 14.543 0.457031 11.3906 0.457031 7.5C0.457031 3.60938 3.60938 0.457031 7.5 0.457031C11.3906 0.457031 14.543 3.60938 14.543 7.5C14.543 9.97266 13.2656 12.1523 11.332 13.4062Z" fill="white"/>
<path d="M9.21094 8.58984L10.0898 9.91406V4.89844H9.21094V8.58984Z" fill="white"/>
</svg>
