<svg width="15" height="15" viewBox="0 0 15 15" fill="none" xmlns="http://www.w3.org/2000/svg">
<path d="M7.50003 3.87183C3.54612 3.87183 0.340576 5.49628 0.340576 7.50007C0.340576 9.50386 3.54612 11.1283 7.50003 11.1283C11.4539 11.1283 14.6595 9.50386 14.6595 7.50007C14.6595 5.49628 11.4539 3.87183 7.50003 3.87183ZM5.6371 8.20694C5.46624 8.36679 5.27651 8.43276 5.06757 8.50073C4.85862 8.56882 4.59272 8.55476 4.2694 8.55476H3.53663L3.33354 9.72663H2.47796L3.24144 5.74226H4.88675C5.38175 5.74226 5.7428 5.88464 5.9698 6.14444C6.19679 6.40425 6.26499 6.77304 6.17452 7.23862C6.13714 7.43046 6.07421 7.60882 5.98538 7.76772C5.89333 7.93169 5.77577 8.07995 5.6371 8.20694V8.20694ZM8.13448 8.55476L8.4721 6.86491C8.51054 6.6671 8.49647 6.52015 8.42979 6.44831C8.363 6.37636 8.22097 6.32819 8.00382 6.32819H7.3253L6.88808 8.55476H6.03917L6.80265 4.68757H7.65155L7.44858 5.74226H8.2048C8.68069 5.74226 9.00882 5.83776 9.1894 6.0037C9.36999 6.16964 9.42413 6.39698 9.35194 6.7687L8.99675 8.55476H8.13448ZM12.8523 7.24483C12.8151 7.43667 12.752 7.61198 12.6633 7.77077C12.5745 7.92979 12.4585 8.07522 12.3151 8.20694C12.1443 8.36679 11.9544 8.43276 11.7456 8.50073C11.5368 8.56882 11.2707 8.55476 10.9473 8.55476H10.2146L10.0116 9.72663H9.15601L9.91937 5.74226H11.5648C12.0598 5.74226 12.4209 5.88464 12.6477 6.14444C12.8745 6.40425 12.9428 6.77936 12.8523 7.24483V7.24483ZM11.2405 6.32819H10.6545L10.3349 7.96882H10.8555C11.2002 7.96882 11.4573 7.93483 11.6261 7.80476C11.7951 7.67491 11.9089 7.47335 11.968 7.16948C12.0248 6.87757 11.999 6.64987 11.8907 6.52987C11.7823 6.40987 11.5656 6.32819 11.2405 6.32819V6.32819ZM4.56261 6.32819H3.97644L3.65687 7.96882H4.1773C4.52218 7.96882 4.77917 7.93483 4.94804 7.80476C5.1169 7.67491 5.23081 7.47335 5.28987 7.16948C5.34659 6.87757 5.32081 6.64987 5.21253 6.52987C5.10425 6.40987 4.88769 6.32819 4.56261 6.32819Z" fill="#6181B6"/>
</svg>
