<svg width="15" height="16" viewBox="0 0 15 16" fill="none" xmlns="http://www.w3.org/2000/svg">
<path d="M7.5 9.33594C8.23782 9.33594 8.83594 8.73782 8.83594 8C8.83594 7.26218 8.23782 6.66406 7.5 6.66406C6.76218 6.66406 6.16406 7.26218 6.16406 8C6.16406 8.73782 6.76218 9.33594 7.5 9.33594Z" fill="#61DAFB"/>
<path d="M12.5742 5.79688C12.3164 5.70312 12.0469 5.60938 11.7656 5.52734C11.8359 5.24609 11.8945 4.96484 11.9414 4.69531C12.1875 3.14844 11.918 2.05859 11.168 1.63672C10.9453 1.50781 10.6992 1.44922 10.418 1.44922C9.59766 1.44922 8.55469 2.05859 7.5 3.07812C6.44531 2.05859 5.40234 1.44922 4.58203 1.44922C4.30078 1.44922 4.05469 1.50781 3.83203 1.63672C3.08203 2.07031 2.8125 3.16016 3.05859 4.69531C3.10547 4.96484 3.16406 5.24609 3.23438 5.52734C2.95312 5.60938 2.68359 5.69141 2.42578 5.79688C0.960938 6.35938 0.164062 7.13281 0.164062 8C0.164062 8.86719 0.972656 9.64063 2.42578 10.2031C2.68359 10.2969 2.95312 10.3906 3.23438 10.4727C3.16406 10.7539 3.10547 11.0352 3.05859 11.3047C2.8125 12.8516 3.08203 13.9414 3.83203 14.3633C4.05469 14.4922 4.30078 14.5508 4.58203 14.5508C5.41406 14.5508 6.45703 13.9414 7.5 12.9219C8.55469 13.9414 9.59766 14.5508 10.418 14.5508C10.6992 14.5508 10.9453 14.4922 11.168 14.3633C11.918 13.9297 12.1875 12.8398 11.9414 11.3047C11.8945 11.0352 11.8359 10.7539 11.7656 10.4727C12.0469 10.3906 12.3164 10.3086 12.5742 10.2031C14.0391 9.64063 14.8359 8.86719 14.8359 8C14.8359 7.13281 14.0391 6.35938 12.5742 5.79688ZM10.8398 2.22266C11.3203 2.50391 11.4844 3.37109 11.2852 4.60156C11.25 4.84766 11.1914 5.10547 11.1211 5.375C10.5117 5.23438 9.86719 5.14062 9.1875 5.08203C8.78906 4.51953 8.37891 4.01562 7.96875 3.55859C8.83594 2.70312 9.71484 2.11719 10.4297 2.11719C10.582 2.11719 10.7227 2.15234 10.8398 2.22266ZM9.52734 9.17188C9.31641 9.54688 9.07031 9.92188 8.8125 10.2969C8.37891 10.332 7.94531 10.3438 7.5 10.3438C7.04297 10.3438 6.60937 10.332 6.1875 10.2969C5.92969 9.92188 5.69531 9.54688 5.48437 9.17188C5.26172 8.78516 5.05078 8.38672 4.86328 8C5.05078 7.61328 5.26172 7.21484 5.48437 6.82812C5.69531 6.45312 5.94141 6.07813 6.19922 5.70313C6.63281 5.66797 7.06641 5.65625 7.51172 5.65625C7.96875 5.65625 8.40234 5.66797 8.82422 5.70313C9.08203 6.07813 9.31641 6.45312 9.52734 6.82812C9.75 7.21484 9.96094 7.61328 10.1484 8C9.94922 8.38672 9.75 8.77344 9.52734 9.17188ZM10.5 8.78516C10.6758 9.19531 10.8164 9.59375 10.9453 9.99219C10.5469 10.0859 10.125 10.1562 9.67969 10.2148C9.82031 9.99219 9.97266 9.75781 10.1016 9.51172C10.2422 9.26563 10.3711 9.01953 10.5 8.78516ZM7.5 11.9609C7.21875 11.6563 6.94922 11.3281 6.69141 10.9883C6.96094 11 7.23047 11.0117 7.5 11.0117C7.76953 11.0117 8.03906 11 8.30859 10.9883C8.05078 11.3281 7.78125 11.6563 7.5 11.9609ZM5.32031 10.2031C4.875 10.1445 4.45312 10.0742 4.05469 9.98047C4.18359 9.59375 4.32422 9.18359 4.5 8.77344C4.62891 9.00781 4.75781 9.25391 4.89844 9.48828C5.03906 9.74609 5.17969 9.96875 5.32031 10.2031ZM4.5 7.21484C4.32422 6.80469 4.18359 6.40625 4.05469 6.00781C4.45312 5.91406 4.875 5.84375 5.32031 5.78516C5.17969 6.00781 5.02734 6.24219 4.89844 6.48828C4.75781 6.73438 4.62891 6.98047 4.5 7.21484ZM7.5 4.03906C7.78125 4.34375 8.05078 4.67188 8.30859 5.01172C8.03906 5 7.76953 4.98828 7.5 4.98828C7.23047 4.98828 6.96094 5 6.69141 5.01172C6.94922 4.67188 7.21875 4.34375 7.5 4.03906ZM10.1016 6.5L9.67969 5.79688C10.125 5.85547 10.5469 5.92578 10.9453 6.01953C10.8164 6.40625 10.6758 6.81641 10.5 7.22656C10.3711 6.98047 10.2422 6.73438 10.1016 6.5ZM3.71484 4.60156C3.51563 3.37109 3.67969 2.50391 4.16016 2.22266C4.27734 2.15234 4.41797 2.11719 4.57031 2.11719C5.27344 2.11719 6.15234 2.69141 7.03125 3.55859C6.62109 4.00391 6.21094 4.51953 5.8125 5.08203C5.13281 5.14062 4.48828 5.24609 3.87891 5.375C3.80859 5.10547 3.76172 4.84766 3.71484 4.60156ZM0.820312 8C0.820312 7.44922 1.48828 6.86328 2.66016 6.42969C2.89453 6.33594 3.15234 6.25391 3.41016 6.18359C3.59766 6.76953 3.83203 7.39062 4.11328 8.01172C3.83203 8.63281 3.58594 9.24219 3.41016 9.82812C1.79297 9.35938 0.820312 8.65625 0.820312 8ZM4.16016 13.7773C3.67969 13.4961 3.51563 12.6289 3.71484 11.3984C3.75 11.1523 3.80859 10.8945 3.87891 10.625C4.48828 10.7656 5.13281 10.8594 5.8125 10.918C6.21094 11.4805 6.62109 11.9844 7.03125 12.4414C6.16406 13.2969 5.28516 13.8828 4.57031 13.8828C4.41797 13.8828 4.27734 13.8477 4.16016 13.7773ZM11.2852 11.3984C11.4844 12.6289 11.3203 13.4961 10.8398 13.7773C10.7227 13.8477 10.582 13.8828 10.4297 13.8828C9.72656 13.8828 8.84766 13.3086 7.96875 12.4414C8.37891 11.9961 8.78906 11.4805 9.1875 10.918C9.86719 10.8594 10.5117 10.7539 11.1211 10.625C11.1914 10.8945 11.2383 11.1523 11.2852 11.3984ZM12.3398 9.57031C12.1055 9.66406 11.8477 9.74609 11.5898 9.81641C11.4023 9.23047 11.168 8.60938 10.8867 7.98828C11.168 7.36719 11.4141 6.75781 11.5898 6.17188C13.207 6.64063 14.1797 7.34375 14.1797 8C14.1797 8.55078 13.5 9.13672 12.3398 9.57031Z" fill="#61DAFB"/>
</svg>
