<svg width="30" height="30" viewBox="0 0 30 30" fill="none" xmlns="http://www.w3.org/2000/svg">
<path d="M18.4692 4.13068C19.8284 4.15235 20.5082 4.16287 21.0698 4.48712C21.6314 4.81142 21.9808 5.39508 22.6792 6.56134L24.4614 9.5379L26.1479 12.5692C26.8088 13.7571 27.1391 14.3513 27.1392 14.9998C27.1392 15.6483 26.8088 16.2425 26.1479 17.4305L24.4614 20.4627L22.6792 23.4393C21.9809 24.6054 21.6313 25.1882 21.0698 25.5125C20.5082 25.8368 19.8284 25.8483 18.4692 25.8699L14.9995 25.9246L11.5308 25.8699C10.1716 25.8483 9.4918 25.8368 8.93018 25.5125C8.36871 25.1882 8.01909 24.6054 7.3208 23.4393L5.53857 20.4627L3.85205 17.4305C3.19121 16.2425 2.86084 15.6483 2.86084 14.9998C2.8609 14.3513 3.19123 13.7571 3.85205 12.5692L5.53857 9.5379L7.3208 6.56134C8.01917 5.39508 8.36861 4.81142 8.93018 4.48712C9.4918 4.16287 10.1716 4.15235 11.5308 4.13068L14.9995 4.07501L18.4692 4.13068ZM15.0005 11.2498C12.9295 11.2498 11.2506 12.9288 11.2505 14.9998C11.2505 17.0709 12.9294 18.7498 15.0005 18.7498C17.0713 18.7496 18.7505 17.0707 18.7505 14.9998C18.7504 12.929 17.0713 11.2501 15.0005 11.2498Z" fill="#2A4157" fill-opacity="0.24"/>
<path d="M3.85211 17.4306C3.19122 16.2426 2.86078 15.6486 2.86078 15C2.86078 14.3514 3.19122 13.7574 3.85211 12.5694L5.53867 9.5375L7.32107 6.56096C8.0195 5.39459 8.36872 4.8114 8.93039 4.48712C9.49205 4.16285 10.1717 4.15201 11.531 4.13033L15 4.075L18.469 4.13033C19.8283 4.15201 20.5079 4.16285 21.0696 4.48712C21.6313 4.8114 21.9805 5.39458 22.6789 6.56096L24.4613 9.5375L26.1479 12.5694C26.8088 13.7574 27.1392 14.3514 27.1392 15C27.1392 15.6486 26.8088 16.2426 26.1479 17.4306L24.4613 20.4625L22.6789 23.439C21.9805 24.6054 21.6313 25.1886 21.0696 25.5129C20.5079 25.8372 19.8283 25.848 18.469 25.8697L15 25.925L11.531 25.8697C10.1717 25.848 9.49205 25.8372 8.93039 25.5129C8.36873 25.1886 8.01951 24.6054 7.32107 23.439L5.53867 20.4625L3.85211 17.4306Z" stroke="#33363F" stroke-width="1.5"/>
<circle cx="15" cy="15" r="3.75" stroke="#33363F" stroke-width="1.5"/>
</svg>
